<svg width="184" height="184" viewBox="0 0 184 184" fill="none" xmlns="http://www.w3.org/2000/svg">
<rect width="184" height="184" rx="28" fill="url(#paint0_linear_22_429)"/>
<path d="M122.747 111.673C107.76 106.989 90.8061 102.918 80.6262 90.0677C79.9186 89.1761 78.9799 88.3695 80.7253 88.0487C84.5368 88.4355 88.3956 88.3081 92.0279 87.1666C82.7726 85.0108 76.4986 76.897 75.8665 67.5238C75.5174 65.368 75.8429 62.1696 73.4559 61.1366C67.0168 59.4525 62.5967 65.868 61.3702 71.4202C57.1435 65.0802 51.0205 60.2355 43.1096 60.1978C43.8077 60.2591 44.4351 60.3205 44.921 60.3724C42.3548 60.0233 37.8262 59.5468 35.7931 60.9196C32.8872 65.5142 35.2506 79.7227 36.4582 85.2372C45.4211 124.461 92.1269 147.237 125.115 120.244L125.006 119.895L129.228 116.036C131.431 114.027 123.822 112.008 122.747 111.673Z" fill="url(#paint1_linear_22_429)"/>
<path d="M148.357 61.1038C145.777 59.7028 142.182 59.9245 139.423 60.3302C132.139 60.7783 126.606 65.6277 122.686 71.4205C121.61 68.0099 120.365 64.3399 117.185 62.2831C115.091 61.0519 110.463 59.6697 109.072 62.5945C107.722 67.6278 107.968 73.2225 105.057 77.8172C96.6934 91.0869 75.5363 91.4407 65.0734 80.4824C67.5499 105.979 84.8624 126.25 111.072 128.405C136.823 118.546 152.211 89.2 149.23 62.3822C149.168 61.8397 148.838 61.3633 148.357 61.1038Z" fill="url(#paint2_linear_22_429)"/>
<rect x="1" y="1" width="182" height="182" rx="27" stroke="#232A40" stroke-opacity="0.04" stroke-width="2"/>
<defs>
<linearGradient id="paint0_linear_22_429" x1="0" y1="0" x2="239.167" y2="61.8122" gradientUnits="userSpaceOnUse">
<stop stop-color="#E2E9FC"/>
<stop offset="1" stop-color="#E9D7FF"/>
</linearGradient>
<linearGradient id="paint1_linear_22_429" x1="34.4015" y1="59.9997" x2="99.736" y2="132.174" gradientUnits="userSpaceOnUse">
<stop stop-color="#0B152C"/>
<stop offset="1" stop-color="#131931"/>
</linearGradient>
<linearGradient id="paint2_linear_22_429" x1="149.503" y1="60" x2="103.274" y2="128.401" gradientUnits="userSpaceOnUse">
<stop stop-color="#B625F9"/>
<stop offset="1" stop-color="#4733BC"/>
</linearGradient>
</defs>
</svg>
